<?xml version="1.0" encoding="UTF-8"?>
<svg width="17px" height="18px" viewBox="0 0 17 18" version="1.1" xmlns="http://www.w3.org/2000/svg" xmlns:xlink="http://www.w3.org/1999/xlink">
    <!-- Generator: Sketch 52.1 (67048) - http://www.bohemiancoding.com/sketch -->
    <title>Icons/Brands/discord</title>
    <desc>Created with Sketch.</desc>
    <g id="Page-1" stroke="none" stroke-width="1" fill="none" fill-rule="evenodd">
        <g id="Artboard" transform="translate(-244.000000, -146.000000)" fill-rule="nonzero">
            <g id="Icons/Brands/discord" transform="translate(244.000000, 146.000000)">
                <path d="M16.2,1.854 L16.2,18 C13.8678509,15.9963047 14.6137018,16.6595625 11.9046857,14.211 L12.3953143,15.876 L1.89771429,15.876 C0.851657143,15.876 0,15.048 0,14.022 L0,1.854 C0,0.828 0.851657143,0 1.89771429,0 L14.3022857,0 C15.3483429,0 16.2,0.828 16.2,1.854 Z" id="Path" fill="#FFFFFF"></path>
                <path d="M12.2286857,5.139 C10.8956571,4.167 9.62742857,4.194 9.62742857,4.194 L9.49782857,4.338 C11.0715429,4.806 11.8028571,5.481 11.8028571,5.481 C9.60388795,4.30927734 7.02081964,4.30906641 4.88777143,5.22 C4.54525714,5.373 4.3416,5.481 4.3416,5.481 C4.3416,5.481 5.10994286,4.77 6.77622857,4.302 L6.68365714,4.194 C6.68365714,4.194 5.41542857,4.167 4.0824,5.139 C4.0824,5.139 2.74937143,7.488 2.74937143,10.386 C2.74937143,10.386 3.52697143,11.691 5.5728,11.754 C5.5728,11.754 5.91531429,11.349 6.19302857,11.007 C5.01737143,10.665 4.57302857,9.945 4.57302857,9.945 C4.70920982,10.0376719 4.93376786,10.1578008 4.95257143,10.17 C6.51507589,11.0207109 8.73454821,11.2994297 10.7290286,10.485 C11.0530286,10.368 11.4140571,10.197 11.7936,9.954 C11.7936,9.954 11.3307429,10.692 10.1180571,11.025 C10.3957714,11.367 10.7290286,11.754 10.7290286,11.754 C12.7748571,11.691 13.5617143,10.386 13.5617143,10.386 C13.5617143,7.488 12.2286857,5.139 12.2286857,5.139 Z" id="Path" fill="#080B2E"></path>
                <path d="M10.7475429,8.55 C10.7475429,9.099 10.3309714,9.549 9.80331429,9.549 C9.28491429,9.549 8.85908571,9.099 8.85908571,8.55 C8.85908571,8.001 9.27565714,7.551 9.80331429,7.551 C10.3309714,7.551 10.7475429,8.001 10.7475429,8.55 Z" id="Path" fill="#FFFFFF"></path>
                <path d="M6.42445714,7.551 C5.8968,7.551 5.48022857,8.001 5.48022857,8.55 C5.48022857,9.099 5.90605714,9.549 6.42445714,9.549 C6.95211429,9.549 7.36868571,9.099 7.36868571,8.55 C7.37794286,8.001 6.95211429,7.551 6.42445714,7.551 Z" id="Path" fill="#FFFFFF"></path>
            </g>
        </g>
    </g>
</svg>