<?xml version="1.0" encoding="utf-8"?>
<!-- Generator: Adobe Illustrator 21.1.0, SVG Export Plug-In . SVG Version: 6.00 Build 0)  -->
<svg version="1.1" id="Layer_1" xmlns="http://www.w3.org/2000/svg" xmlns:xlink="http://www.w3.org/1999/xlink" x="0px" y="0px"
	 viewBox="0 0 144 192" style="enable-background:new 0 0 144 192;" xml:space="preserve">
<style type="text/css">
	.st0{fill:#FFFFFF;}
	.st1{enable-background:new    ;}
	.st2{fill:#374E9E;}
	.st3{fill:#0C153A;}
	.st4{fill:#F0B81D;}
</style>
<rect x="-0.3" y="-0.7" class="st0" width="144" height="192"/>
<g>
	<g>
		<g>
			<g>
				<g class="st1">
					<g>
						<polygon class="st0" points="100.2,29.7 132,69.4 132,77 114.9,95.8 112.3,102.6 112,104.2 113.6,110.1 113.6,114.2 
							110,124.6 99.8,148.6 72,160.8 44.2,148.6 37.3,132.7 33.9,124.3 30.4,114.2 30.4,110.1 32,104.2 31.7,102.5 29.1,95.8 
							28.3,95.3 12,77 12,69.4 43.9,29.7 40.8,60.3 45.5,63 55,58.5 55,56.1 72,48.3 89.1,56.1 89.1,58.5 98.7,63.1 103.2,60.3 
													"/>
					</g>
					<g>
						<polygon class="st2" points="43.9,29.7 40.8,60.3 40.8,61.8 43.9,31.2 						"/>
						<polygon class="st2" points="103.2,60.3 100.2,29.7 100.2,31.2 103.2,61.8 						"/>
						<polygon class="st2" points="114.9,95.8 112.3,102.6 112,104.2 112,105.7 112.3,104 114.9,97.4 132,78.5 132,77 						"/>
						<polygon class="st2" points="32,105.7 32,104.2 31.7,102.5 29.1,95.8 28.3,95.3 12,77 12,78.5 28.3,96.8 29.1,97.4 31.7,104 
													"/>
						<polygon class="st2" points="99.8,148.6 72,160.8 44.2,148.6 37.3,132.7 33.9,124.3 30.4,114.2 30.4,115.7 33.9,125.9 
							37.3,134.3 44.2,150.2 72,162.3 99.8,150.2 110,126.2 113.6,115.7 113.6,114.2 110,124.6 						"/>
					</g>
				</g>
			</g>
			<g>
				<g class="st1">
					<g>
						<polygon class="st3" points="105.4,41.8 128.1,70.1 128.1,74.8 111.5,93 108.6,100.7 108,103.6 109.6,109.8 109.6,112.8 
							106.4,122.4 96.8,144.9 79.2,152.6 72,155.8 64.9,152.6 47.2,144.9 40.9,130.5 37.6,122.4 34.4,112.8 34.4,109.8 36,103.6 
							35.5,100.7 32.4,92.6 31,91.6 16,74.8 16,70.1 38.6,41.8 36.6,61.4 38.1,62.5 45.3,66.6 58.9,60.3 58.9,57.9 72,51.9 
							85.1,57.9 85.1,60.3 98.9,66.8 105.9,62.6 107.4,61.4 						"/>
					</g>
					<g>
						<polygon points="38.6,41.8 36.6,61.4 36.6,62.8 38.6,43.2 						"/>
						<polygon points="107.4,61.4 105.4,41.8 105.4,43.2 107.4,62.8 						"/>
						<polygon points="111.5,93 108.6,100.7 108,103.6 108,105.1 108.6,102.1 111.5,94.4 128.1,76.2 128.1,74.8 						"/>
						<polygon points="36,105 36,103.6 35.5,100.7 32.4,92.6 31,91.6 16,74.8 16,76.2 31,93 32.4,94 35.5,102.1 						"/>
						<polygon points="96.8,144.9 79.2,152.6 72,155.8 64.9,152.6 47.2,144.9 40.9,130.5 37.6,122.4 34.4,112.8 34.4,114.2 
							37.6,123.8 40.9,131.9 47.2,146.3 64.9,154 72,157.2 79.2,154 96.8,146.3 106.4,123.8 109.6,114.2 109.6,112.8 106.4,122.4 
													"/>
					</g>
				</g>
			</g>
			<g>
				<g>
					<g class="st1">
						<g>
							<polygon class="st2" points="103,68.4 100.6,70.3 100.6,70.3 100.6,70.3 100.6,72.1 102.8,81.1 109.1,89.4 110.8,87.1 
								110.8,85.3 104.7,77.3 							"/>
							<polygon class="st2" points="107.7,90.3 100.2,79.8 98.4,70.7 82.9,63.4 81.4,73.7 81.4,73.7 81.4,73.7 81.4,75.5 83,86.2 
								99.9,82.6 99.6,91.1 99.6,93 105.3,95.1 106.9,95.7 107.7,92.1 107.7,90.3 							"/>
							<polygon class="st2" points="78.7,75.5 81.2,62 81.2,60.2 81.2,60.2 81.2,60.2 78.7,73.7 78.7,75.5 							"/>
							<polygon class="st2" points="41.4,80.9 43.6,71.9 43.6,70 43.6,70 40.9,68.4 39.2,77.3 33.1,85.3 33.1,85.3 33.1,87.1 
								35.1,89.2 35.1,89.2 35.1,89.2 							"/>
							<polygon class="st2" points="38.7,95.1 44.5,92.8 44.5,92.8 44.5,91 44.1,82.6 61,86.2 61,86.2 61,86.2 62.8,75.5 62.8,73.7 
								61.2,63.3 45.6,70.7 43.8,79.8 36.3,90.3 36.3,92.1 37,95.7 37,95.7 37,95.7 							"/>
							<polygon class="st2" points="105.7,110.3 104,103.7 105.1,97.5 105.1,97.5 105.1,95.7 99.5,94.1 99.1,102.1 99.1,103.9 
								100.5,108.7 100.5,108.7 100.5,108.7 99.7,118.6 99.7,118.6 99.7,118.6 99.7,120.4 100.6,121.4 101.3,122.4 101.9,123.5 
								101.9,123.5 101.9,123.5 105.7,112.1 105.7,110.3 							"/>
							<path class="st2" d="M71.6,85.7l0.9,1.7l4-0.4c-0.2-1-4.1-3.3-4.8-3.8v-0.1c0,0,0,0-0.1,0c0,0-0.1,0-0.1,0v0.1
								c-0.7,0.4-4.6,2.8-4.8,3.8l4,0.4L71.6,85.7z"/>
							<polygon class="st2" points="124.1,71.3 124.1,71.3 110.7,54.5 111.5,63.1 105,68 105,68 105,69.8 106.9,77.9 113.1,85.4 
								113.1,85.4 113.1,85.4 124.1,73.1 							"/>
							<polygon class="st2" points="39,69.8 39,68 39,68 32.5,63.1 33.3,54.5 19.9,71.3 19.9,73.1 30.9,85.4 37.1,77.9 							"/>
							<polygon class="st2" points="65.3,75.5 65.3,75.5 65.3,73.7 62.8,60.2 62.8,62 62.8,62 							"/>
							<polygon class="st2" points="72,100.3 72,100.3 81.2,93.4 81.2,91.5 78.9,93.2 72,98.4 62.8,91.5 62.8,91.5 62.8,93.4 
															"/>
							<polygon class="st2" points="44.3,120.4 44.3,120.4 44.3,118.5 43.5,108.7 45,103.9 45,102.1 44.6,93.9 38.9,95.5 38.9,95.5 
								38.9,97.3 40.1,103.7 38.3,110.3 38.3,112.1 38.3,112.1 42.1,123.4 43.2,121.4 43.8,120.9 							"/>
							<polygon class="st2" points="63.2,124.2 63.2,126 65.1,130.1 78.2,132.6 80.7,123.7 80.7,121.9 78.2,130.8 65.1,128.3 
															"/>
							<polygon class="st2" points="100,124.7 100,124.7 91.4,132.7 82.5,123 79.5,133.3 63.6,130.5 61.5,125.4 52.6,132.7 
								43.9,124.8 43.9,124.8 43.9,124.8 43.9,126.6 50.2,141.9 53,143.1 58.2,132.9 57.4,143.3 57.4,143.3 57.4,143.3 57.4,145.1 
								62.8,147.5 62.8,147.5 62.8,147.5 66.4,139.5 67,138.1 66.4,147.2 66.4,149 66.4,149 72,151.5 77.6,149 77.6,149 77.6,149 
								77.6,147.2 77,138.1 81.2,147.5 86.6,145.1 86.6,143.3 86.6,143.3 85.8,132.9 91.1,143.1 93.8,141.9 100,126.6 100,124.7 
															"/>
							<polygon class="st2" points="52.3,103 52.1,96.7 52.1,98.3 52.1,98.3 52.1,99.8 52.2,104.6 52.3,104.5 							"/>
							<polygon class="st2" points="51.3,106.8 52.3,106.7 57.6,105.9 61.9,109 61.9,107.5 57.6,104.4 52.3,105.1 52.3,105.1 
								52.3,105.1 51.3,105.3 							"/>
							<polygon class="st2" points="92.3,102.8 92.3,103 92.3,103 92.3,104.5 92.3,104.6 92.5,99.8 92.5,98.3 92.5,96.7 92.5,96.7 
								92.5,96.7 							"/>
							<polygon class="st2" points="92.2,105.1 92.2,105.1 86.9,104.4 82.6,107.5 82.6,109 86.9,105.9 92.3,106.7 93.2,106.8 
								93.2,105.3 92.3,105.1 							"/>
						</g>
						<g>
							<polygon class="st0" points="92.5,96.7 92.3,103 92.3,103.1 93.2,105.3 92.3,105.1 86.9,104.4 82.6,107.5 82.6,98.2 							
								"/>
						</g>
					</g>
				</g>
				<g>
					<g>
						<polygon class="st0" points="110.7,54.5 124.1,71.3 113.1,83.6 106.9,76.1 105,68 111.5,63.1 						"/>
					</g>
					<g>
						<polygon class="st0" points="33.3,54.5 19.9,71.3 30.9,83.6 37.1,76.1 39,68 32.5,63.1 						"/>
					</g>
					<g>
						<polygon class="st4" points="103,68.4 104.7,77.3 110.8,85.3 109.1,87.6 102.8,79.3 100.6,70.3 						"/>
					</g>
					<g>
						<polygon class="st0" points="82.9,63.4 98.4,70.7 100.2,79.8 107.7,90.3 106.9,93.9 105.3,93.2 99.6,91.1 100,80.8 83,84.4 
							81.4,73.7 						"/>
					</g>
					<g>
						<polygon class="st4" points="40.9,68.4 43.6,70 41.4,79.1 35.1,87.4 33.1,85.3 39.2,77.3 						"/>
					</g>
					<g>
						<polygon class="st0" points="61.2,63.3 62.8,73.7 61,84.4 44,80.8 44.5,91 38.7,93.3 37,93.9 36.3,90.3 43.8,79.8 45.6,70.7 
													"/>
					</g>
					<g>
						<polygon class="st4" points="99.5,94.1 105.1,95.7 103.7,102.9 105.7,110.3 101.9,121.6 100.6,119.6 99.7,118.6 100.9,108.3 
							99.1,102.1 						"/>
					</g>
					<g>
						<polygon class="st0" points="63.2,124.2 72,125.2 80.7,121.9 78.2,130.8 65.1,128.3 						"/>
					</g>
					<g>
						<polygon class="st4" points="82.5,123 91.4,132.7 98.8,123.6 100,124.7 93.8,140.1 91.1,141.3 85.6,130.8 86.6,143.3 
							81.2,145.7 76.9,135.9 77.6,147.2 72,149.7 66.4,147.2 67.2,135.9 62.8,145.7 57.4,143.3 58.4,130.8 53,141.3 50.2,140.1 
							43.9,124.8 44.9,123.5 52.6,132.7 61.5,125.4 63.6,130.5 79.5,133.3 						"/>
					</g>
				</g>
				<path class="st4" d="M81.2,60.2L72,56l-9.2,4.2l2.5,13.5l-2.5,17.8l9.2,6.9l9.2-6.9l-2.5-17.8L81.2,60.2z M74,90.8l-2.3-1.2
					l-2.3,1.2l0.4-2.6l-1.9-1.9l2.6-0.4l1.2-2.4l1.2,2.4l2.6,0.4l-1.9,1.9L74,90.8z"/>
				<g>
					<polygon class="st0" points="52.1,96.7 61.9,98.2 61.9,107.5 57.6,104.4 52.3,105.1 51.3,105.3 52.2,103.1 52.3,103 					"/>
				</g>
				<g>
					<polygon class="st4" points="44.6,93.9 45,102.1 43.1,108.3 44.3,118.5 43.2,119.6 42.1,121.6 38.3,110.3 40.3,102.9 
						38.9,95.5 					"/>
				</g>
			</g>
		</g>
	</g>
</g>
</svg>
