<?xml version="1.0" encoding="utf-8"?>
<!-- Generator: Adobe Illustrator 21.1.0, SVG Export Plug-In . SVG Version: 6.00 Build 0)  -->
<svg version="1.1" id="Layer_1" xmlns="http://www.w3.org/2000/svg" xmlns:xlink="http://www.w3.org/1999/xlink" x="0px" y="0px"
	 viewBox="0 0 144 192" style="enable-background:new 0 0 144 192;" xml:space="preserve">
<style type="text/css">
	.st0{fill:#FFFFFF;}
	.st1{enable-background:new    ;}
	.st2{fill:#374E9E;}
	.st3{fill:#0F1524;}
	.st4{fill:#0C153A;}
	.st5{fill:#F0B81D;}
</style>
<rect x="0.3" y="-0.6" class="st0" width="144" height="192"/>
<g>
	<g>
		<g class="st1">
			<g>
				<polygon class="st2" points="102.3,64.7 99.5,22.5 99.5,25.2 102.3,67.4 				"/>
				<polygon class="st2" points="44.8,21.8 41.7,65.1 41.7,67.8 44.8,24.5 				"/>
				<polygon class="st2" points="115.8,102.9 113.6,109.5 113.6,112.2 115.8,105.6 133,87.1 133,84.4 				"/>
				<polygon class="st2" points="30.3,109.5 27.4,102.2 11,84.2 11,86.9 27.4,104.9 30.2,112.2 				"/>
				<polygon class="st2" points="71.9,167.5 43.4,155.2 29.5,120.9 29.5,123.6 43.4,157.9 71.9,170.2 100.4,158 114.4,123.7 
					114.4,121 100.4,155.3 				"/>
			</g>
			<g>
				<polygon class="st0" points="44.8,21.8 41.7,65.1 45.5,67.4 54.2,63.4 54.2,61.1 72.1,53.1 89.9,61.1 89.9,63.5 98.5,67.5 
					102.3,64.7 99.5,22.5 133,75.1 133,84.4 115.8,102.9 113.6,109.5 114.4,115 114.4,121 100.4,155.3 71.9,167.5 43.4,155.2 
					29.5,120.9 29.5,114.9 30.3,109.5 27.4,102.2 11,84.2 11,74.9 31.7,42.7 				"/>
			</g>
		</g>
	</g>
	<g>
		<g>
			<g>
				<g>
					<g class="st1">
						<g>
							<polygon class="st3" points="112.3,99.1 109.4,108 109.4,109.8 112.3,100.9 129,82.8 129,81 							"/>
							<polygon class="st3" points="34.5,107.8 30.8,98.4 15,80.8 15,82.6 30.8,100.2 34.5,109.7 							"/>
							<polygon class="st3" points="88.9,154.6 78.7,159 71.9,161.9 65.1,159 46.5,150.9 33.5,118.5 33.5,120.3 46.5,152.7 
								65.1,160.8 71.9,163.8 78.7,160.8 88.9,156.4 97.4,152.8 110.5,120.4 110.5,118.6 97.4,151 							"/>
						</g>
						<g>
							<polygon class="st4" points="39.7,36.9 37.5,67 45.3,71.7 58.2,65.7 58.2,63.4 72.1,57.1 85.9,63.4 85.9,65.8 99,71.9 
								106.4,66.4 104.5,37.3 129,76.1 129,81 112.3,99.1 109.4,108 110.5,115.5 110.5,118.6 97.4,151 88.9,154.6 78.7,159 
								71.9,161.9 65.1,159 46.5,150.9 33.5,118.5 33.5,115.3 34.5,107.8 30.8,98.4 15,80.8 15,75.9 35,44.5 							"/>
						</g>
					</g>
				</g>
				<g>
					<g class="st1">
						<g>
							<g class="st1">
								<g>
									<polygon class="st2" points="113.3,90.4 107.1,82.9 105.1,74.7 105.1,76.5 107.1,84.7 113.3,92.2 124.4,79.9 124.4,78 
																			"/>
									<polygon class="st2" points="100.1,89.4 100.1,87.5 83,91.1 81.4,80.4 81.4,82.2 83,92.9 									"/>
									<polygon class="st2" points="103,86 100.8,77 100.8,78.8 103,87.9 109.3,96.2 111,93.9 111,92.1 109.3,94.4 									"/>
									<polygon class="st2" points="105.4,100.1 99.7,97.9 99.7,99.8 105.4,101.9 107.1,102.6 107.8,99 107.8,97.1 107.1,100.7 
																			"/>
									<polygon class="st2" points="81.3,66.8 78.8,80.3 78.8,82.1 81.3,68.6 									"/>
									<polygon class="st2" points="65.3,80.2 62.9,66.7 62.9,68.6 65.3,82.1 									"/>
									<polygon class="st2" points="77.2,93.9 77.2,92.1 72,92.1 66.8,92.1 66.8,93.9 72,93.9 									"/>
									<polygon class="st2" points="81.2,100 81.2,98.2 72,105.1 62.8,98.1 62.8,100 72,106.9 									"/>
									<polygon class="st2" points="35,53.5 34.9,53.7 34.9,55.5 35,55.3 									"/>
									<polygon class="st2" points="38.9,76.4 38.9,74.6 36.9,82.7 30.7,90.3 19.6,77.9 19.6,79.7 30.7,92.1 36.9,84.6 									
										"/>
									<polygon class="st2" points="43.5,78.5 43.5,76.7 41.3,85.7 34.9,94.1 33,91.9 33,93.8 34.9,95.9 41.3,87.5 									"/>
									<polygon class="st2" points="62.7,82.2 62.7,80.4 61,91.1 43.9,87.4 43.9,89.2 61,92.9 									"/>
									<polygon class="st2" points="44.3,99.5 44.3,97.7 38.5,100 36.9,100.6 36.2,97 36.2,98.8 36.9,102.4 38.5,101.8 									
										"/>
									<polygon class="st2" points="103.8,109.8 103.8,111.6 105.2,104.3 105.2,102.5 									"/>
									<polygon class="st2" points="40.1,111.5 40.2,109.7 38.7,102.2 38.7,104 									"/>
									<polygon class="st2" points="101,115.2 99.2,108.9 99.2,110.8 101,117 									"/>
									<polygon class="st2" points="42.9,116.9 44.8,110.6 44.8,108.8 42.9,115.1 									"/>
									<polygon class="st2" points="51.2,128.3 52.2,127.2 52.2,125.4 51.2,126.5 41.9,128.4 38.1,117 38.1,118.9 41.9,130.3 
																			"/>
									<polygon class="st2" points="92.6,126.5 91.7,125.5 91.7,127.3 92.6,128.4 102,130.4 105.8,119 105.8,117.2 102,128.6 
																			"/>
									<polygon class="st2" points="82.3,126.1 72,130 61.6,128.4 52.2,136.1 41.3,130.8 41.3,132.7 52.2,137.9 61.6,130.2 
										72,131.8 82.3,128 91.7,138 102.6,132.7 102.6,130.9 91.7,136.1 									"/>
									<polygon class="st2" points="91.1,148.3 85.6,138.6 85.6,139.6 91.1,150.2 93.8,149 99.2,136.6 99.2,134.8 93.8,147.1 
																			"/>
									<polygon class="st2" points="58,138.8 52.8,148.3 50,147.1 44.7,134.7 44.7,136.6 50,148.9 52.8,150.1 58.3,139.5 
																			"/>
									<polygon class="st2" points="67.1,142.9 62.7,152.6 57.2,150.2 57.2,152.1 62.7,154.5 67.1,144.7 									"/>
									<polygon class="st2" points="76.8,142.9 76.8,144.7 81.1,154.5 86.6,152.1 86.6,150.3 81.1,152.7 									"/>
									<polygon class="st2" points="66.2,154.2 66.2,156 71.9,158.5 77.6,156.1 77.6,154.2 71.9,156.7 									"/>
									<polygon class="st2" points="85.6,137.5 85.6,136.3 72,135.5 59.1,136.2 59.1,137.4 72,136.7 									"/>
								</g>
								<g>
									<polygon class="st0" points="82.3,129.4 85.6,136.3 72,135.5 59.1,136.2 61.7,131.3 72,132.6 									"/>
								</g>
							</g>
						</g>
						<g>
							<path class="st5" d="M81.3,66.8l-2.5,13.5l2.5,17.9l-9.2,6.9l-9.2-6.9l2.5-17.9l-2.5-13.5l9.2-4.2L81.3,66.8z M72,97.2
								l5.2-5.1H72h-5.2L72,97.2"/>
						</g>
						<g>
							<polygon class="st0" points="35,53.5 31.5,70.9 38.9,74.6 36.9,82.7 30.7,90.3 19.6,77.9 35,53.5 34.9,53.7 							"/>
						</g>
						<g>
							<polygon class="st5" points="40.8,75 43.5,76.7 41.3,85.7 34.9,94.1 33,91.9 39.1,84 							"/>
						</g>
						<g>
							<polygon class="st0" points="61.2,69.9 62.7,80.4 61,91.1 43.9,87.4 44.3,97.7 38.5,100 36.9,100.6 36.2,97 43.7,86.5 
								45.5,77.3 							"/>
						</g>
						<g>
							<polygon class="st5" points="44.4,100.6 44.8,108.8 42.9,115.1 52.2,125.4 51.2,126.5 41.9,128.4 38.1,117 40.2,109.7 
								38.7,102.2 							"/>
						</g>
						<g>
							<polygon class="st5" points="99.6,100.9 105.2,102.5 103.8,109.8 105.8,117.2 102,128.6 92.6,126.5 91.7,125.5 101,115.2 
								99.2,108.9 							"/>
						</g>
						<g>
							<polygon class="st5" points="82.8,121.3 91.1,129.1 102.6,130.9 91.7,136.1 82.3,126.1 72,130 61.6,128.4 52.2,136.1 
								41.3,130.8 52.8,129 61.1,121.2 72,126.8 							"/>
						</g>
						<polygon class="st5" points="88.4,138.6 72,137.7 56.4,138.9 58.3,134.5 52.4,139.6 44.7,134.7 50,147.1 52.8,148.3 
							58.1,139.9 57.2,150.2 62.7,152.6 67.1,142.9 66.2,154.2 71.9,156.7 77.6,154.2 76.8,142.9 81.1,152.7 86.6,150.3 85.8,139.9 
							91.1,148.3 93.8,147.1 99.2,134.8 91.4,139.6 85.9,133.2 						"/>
					</g>
					<g class="st1">
						<g>
							<polygon class="st0" points="109.1,53.6 124.4,78 113.3,90.4 107.1,82.9 105.1,74.7 112.6,71.1 							"/>
						</g>
						<g>
							<polygon class="st5" points="103.2,75.1 104.9,84.1 111,92.1 109.3,94.4 103,86 100.8,77 							"/>
						</g>
						<g>
							<polygon class="st0" points="83,70.1 98.6,77.4 100.3,86.6 107.8,97.1 107.1,100.7 105.4,100.1 99.7,97.9 100.1,87.5 
								83,91.1 81.4,80.4 							"/>
						</g>
					</g>
				</g>
			</g>
		</g>
	</g>
	<g>
		<g class="st1">
			<g>
				<polygon class="st2" points="93.2,108.6 93.2,110.1 94,100.4 94,98.9 				"/>
				<polygon class="st2" points="79.8,114 79.8,115.5 88.1,111.4 93.9,113.3 93.9,111.8 88.1,109.8 				"/>
				<polygon class="st2" points="50.8,108.5 50,98.8 50,100.3 50.8,110.1 				"/>
				<polygon class="st2" points="50.1,111.7 50.1,113.2 55.9,111.3 64.1,115.5 64.1,114 55.9,109.8 				"/>
			</g>
			<g>
				<polygon class="st0" points="50,98.8 62.6,106.3 64.1,114 55.9,109.8 50.1,111.7 50.8,108.5 				"/>
			</g>
		</g>
		<g>
			<polygon class="st0" points="94,98.9 93.2,108.6 93.9,111.8 88.1,109.8 79.8,114 81.4,106.4 			"/>
		</g>
	</g>
</g>
</svg>
